Coordinates
version=1
nRows=13
nColumns=36
inDegrees=yes

Units are S.I. units (second, meters, Newtons, ...)
If the header above contains a line with 'inDegrees', this indicates whether rotational values are in degrees (yes) or radians (no).

endheader
time	pelvis_tilt	pelvis_list	pelvis_rotation	pelvis_tx	pelvis_ty	pelvis_tz	hip_flexion_r	hip_adduction_r	hip_rotation_r	knee_angle_r	knee_angle_r_beta	ankle_angle_r	subtalar_angle_r	mtp_angle_r	hip_flexion_l	hip_adduction_l	hip_rotation_l	knee_angle_l	knee_angle_l_beta	ankle_angle_l	subtalar_angle_l	mtp_angle_l	lumbar_extension	lumbar_bending	lumbar_rotation	arm_flex_r	arm_add_r	arm_rot_r	elbow_flex_r	pro_sup_r	arm_flex_l	arm_add_l	arm_rot_l	elbow_flex_l	pro_sup_l
      0.99000000	     -2.54648333	      4.07916890	      3.13519105	     -0.76759708	      1.40884395	     -0.56961170	      4.80265193	     -0.78381499	     -1.02364534	     39.29656211	      0.68585439	    -14.65134278	    -16.29183621	     -3.92246672	     23.66399212	      2.46338660	     -2.63875775	     43.86159168	      0.76552919	     -9.19980548	     -7.31847031	     -3.92246672	     -5.36351620	      1.72375654	    -16.14013814	     59.26367746	    -20.03985953	     24.07471423	    106.63630904	    111.50963895	      0.94876581	    -44.88190852	    -26.77599283	    119.22766022	     94.06095458
      1.00000000	     -2.07113865	      3.98129546	      3.10491968	     -0.75573848	      1.41385328	     -0.56967565	      4.88055099	     -0.98219058	     -2.29555943	     39.21489258	      0.68442899	    -13.70124003	    -16.87466184	     -3.98904658	     22.86477457	      2.19197266	     -3.20556328	     41.78235515	      0.72923967	     -9.98973251	     -6.55044599	     -3.98904658	     -5.49131572	      1.67507157	    -16.07356029	     58.23516965	    -20.76395053	     23.87040411	    108.25247570	    111.62685095	     -0.99148413	    -45.68118911	    -27.93692820	    119.48544966	     94.10782725
      1.01000000	     -1.82193227	      3.61610100	      3.19576044	     -0.74390082	      1.41769715	     -0.56976460	      5.00258841	     -0.77620101	     -3.53414111	     38.42382616	      0.67062228	    -12.04879037	    -17.85135877	     -4.01002641	     22.35700435	      1.69960774	     -3.55073420	     39.74389177	      0.69366177	    -10.52192001	     -5.87529390	     -4.01002641	     -5.27062078	      1.94536182	    -15.97852656	     57.10278189	    -21.65848778	     23.98262810	    109.60575345	    111.72104954	     -2.70350886	    -46.35592679	    -28.57496727	    119.23495079	     94.07924652
      1.02000000	     -1.24971529	      3.41043188	      3.32745312	     -0.73205543	      1.42095647	     -0.56969095	      4.70493725	     -0.72487853	     -4.86898504	     37.26353004	      0.65037129	     -9.75925660	    -17.79037349	     -4.31976098	     21.34466491	      1.39218783	     -3.77535864	     37.34750614	      0.65183695	    -11.28853308	     -4.97672489	     -4.31976098	     -5.85979854	      2.11712652	    -17.91049693	     57.06635539	    -20.67660634	     25.11555619	    109.85707474	    111.63502006	     -9.07215135	    -46.78485379	    -34.90751263	    121.04849810	     94.18131711
      1.03000000	     -0.87068532	      3.01416229	      3.51774462	     -0.72024236	      1.42322629	     -0.56943113	      4.42639213	     -0.35953901	     -6.09019239	     35.26307437	      0.61545675	     -9.17930051	    -18.42320618	     -4.35380976	     20.55820859	      0.88783829	     -3.91071880	     34.91217826	      0.60933246	    -11.98456081	     -3.83490655	     -4.35380976	     -5.94759040	      2.35316738	    -17.84360344	     55.71566547	    -21.98463438	     25.28647784	    111.40822582	    111.72630168	    -10.72158479	    -47.48573782	    -35.66604415	    120.94850909	     94.15108740
      1.04000000	     -0.18134381	      2.63201157	      3.61559713	     -0.70842691	      1.42490479	     -0.56903847	      3.71880984	      0.04673581	     -7.27580679	     32.78252380	      0.57216298	     -9.55613074	    -19.11405860	     -4.52773549	     19.34819821	      0.30774325	     -4.34705604	     32.33859798	      0.56441501	    -12.13640220	     -2.31763316	     -4.52773549	     -6.52772353	      2.60282697	    -18.52938779	     54.92022851	    -22.52973509	     26.00866526	    112.06560795	    111.55764488	    -14.27329598	    -47.85120021	    -38.67792810	    121.46852213	     94.05455261
      1.05000000	      0.24878473	      2.33146960	      3.66650005	     -0.69701122	      1.42514090	     -0.56896432	      3.49519589	      0.31830560	     -8.32601943	     30.54509015	      0.53311239	     -9.47775613	    -18.89520328	     -4.78603514	     18.42532985	     -0.05347546	     -4.58995850	     29.68688542	      0.51813390	    -12.86118287	     -1.54414136	     -4.78603514	     -6.91277778	      2.77874516	    -19.29313174	     54.29107636	    -23.03457004	     27.04693647	    112.59751218	    111.23255749	    -18.18927420	    -48.01326854	    -42.09281791	    122.05262431	     93.72689533
      1.06000000	      0.64736025	      2.13276329	      3.58154774	     -0.68584655	      1.42433371	     -0.56891200	      3.48918707	      0.49256783	     -9.07999238	     28.50926929	      0.49758062	     -9.52080596	    -18.52569221	     -4.98628487	     17.50972789	     -0.29200503	     -4.85910498	     26.97044525	      0.47072307	    -13.63341433	     -1.08542789	     -4.98628487	     -7.29317177	      2.80005281	    -19.60667588	     53.42333376	    -23.77047324	     27.67069004	    113.13502529	    110.98893109	    -21.28088062	    -48.24996416	    -44.65311244	    122.37043742	     93.33418708
      1.07000000	      0.96456078	      1.91103993	      3.39128121	     -0.67482976	      1.42244148	     -0.56876020	      3.68599549	      0.70591916	     -9.62057014	     26.56120060	      0.46358040	     -9.78626783	    -17.88884784	     -5.19693088	     16.69078130	     -0.57565942	     -5.17461791	     24.26688364	      0.42353702	    -14.34879882	     -0.45222626	     -5.19693088	     -7.64450114	      2.83280058	    -19.97882944	     52.64622328	    -24.43622395	     28.54706442	    113.48440522	    110.77201870	    -24.75002543	    -48.21881140	    -47.61144578	    122.82576226	     92.92828398
      1.08000000	      1.17286020	      1.68955999	      3.14040137	     -0.66387159	      1.41947958	     -0.56857836	      4.01604688	      0.95810700	     -9.82601847	     24.54221870	      0.42834252	    -10.48724114	    -16.99899442	     -5.38038358	     16.02031477	     -0.86179239	     -5.48718015	     21.61175699	      0.37719632	    -15.00722766	      0.41181785	     -5.38038358	     -7.90975051	      2.84125623	    -20.22419845	     51.86753116	    -25.37600285	     29.51237860	    113.81288151	    110.71973455	    -28.03715018	    -48.06022830	    -50.42498654	    123.24104641	     92.66872277
      1.09000000	      1.06471932	      1.47453227	      2.83395343	     -0.65293723	      1.41513254	     -0.56827815	      4.78011570	      1.22790591	     -9.63335290	     22.63420908	      0.39504147	    -11.40651049	    -15.73736765	     -5.39927845	     15.72366938	     -1.10436254	     -5.56393176	     19.05007358	      0.33248651	    -15.45831443	      1.18195999	     -5.39927845	     -7.69955489	      2.81203314	    -19.69041717	     50.57028554	    -26.95108496	     30.03747743	    114.50378472	    110.72088328	    -29.66773241	    -48.35925561	    -51.22107164	    123.08235084	     92.59068877
      1.10000000	      1.38509270	      1.35923430	      2.49535797	     -0.64190205	      1.41022193	     -0.56770159	      5.10320363	      1.40628209	     -9.47865670	     20.75908942	      0.36231446	    -12.56872969	    -14.32257945	     -5.55526481	     14.88709322	     -1.30769365	     -5.77711295	     16.35306301	      0.28541479	    -16.09496847	      2.09326372	     -5.55526481	     -8.25421942	      2.63983165	    -20.64845318	     50.34069889	    -27.10084608	     31.48060953	    114.07042236	    110.76351099	    -34.73632052	    -47.33397555	    -56.11669777	    124.13353579	     92.22777794
      1.11000000	      1.51648259	      1.22133998	      2.13703589	     -0.63100646	      1.40420136	     -0.56717804	      5.63905856	      1.58145314	     -9.22724109	     18.85669991	      0.32911150	    -13.74942929	    -12.46176300	     -5.61569459	     14.28993523	     -1.50468792	     -5.79594892	     13.73501335	      0.23972121	    -16.45546141	      2.80242972	     -5.61569459	     -8.46694613	      2.47150587	    -20.37342899	     49.20195597	    -28.39781888	     32.09333701	    114.45468370	    110.75556970	    -37.10130160	    -47.20405048	    -57.95249458	    124.42660889	     92.04546208
